<?xml version="1.0" standalone="no"?>
<!DOCTYPE svg PUBLIC "-//W3C//DTD SVG 20010904//EN"
 "http://www.w3.org/TR/2001/REC-SVG-20010904/DTD/svg10.dtd">
<svg version="1.0" xmlns="http://www.w3.org/2000/svg"
 width="500.000000pt" height="500.000000pt" viewBox="0 0 500.000000 500.000000"
 preserveAspectRatio="xMidYMid meet">

<g transform="translate(0.000000,500.000000) scale(0.100000,-0.100000)"
fill="#000000" stroke="none">
<path d="M1144 3280 c-45 -79 -264 -497 -264 -504 0 -3 63 -6 140 -6 l139 0
-5 -47 c-20 -190 -31 -339 -24 -346 4 -5 37 47 73 115 36 67 101 191 145 273
43 83 77 153 75 158 -2 4 -65 7 -139 7 -100 0 -134 3 -134 12 0 7 7 88 16 180
20 216 18 229 -22 158z m-4 -171 c-5 -63 -10 -135 -10 -161 l0 -47 129 -3 129
-3 -112 -212 c-61 -117 -114 -214 -116 -217 -3 -2 0 57 7 132 6 75 12 149 12
165 l1 27 -124 0 c-69 0 -127 4 -130 8 -5 8 215 435 221 429 2 -2 -1 -55 -7
-118z"/>
<path d="M1240 3250 c0 -5 6 -10 13 -10 8 0 41 -14 74 -30 152 -76 245 -261
213 -423 -24 -124 -103 -237 -198 -286 -38 -19 -55 -41 -33 -41 19 0 129 81
158 117 141 176 130 417 -26 574 -71 70 -201 135 -201 99z"/>
<path d="M935 3221 c-27 -16 -72 -52 -98 -80 -194 -207 -136 -540 116 -666 66
-33 136 -47 122 -25 -3 6 -12 10 -20 10 -38 0 -127 45 -178 91 -212 189 -166
538 87 662 31 15 56 30 56 32 0 13 -40 2 -85 -24z"/>
</g>
</svg>
